<svg version="1.1" id="prefix__Layer_1" xmlns="http://www.w3.org/2000/svg" x="0" y="0" width="64" height="64" xml:space="preserve"><style>.prefix__st1{fill:#fff}</style><path d="M32 0C14.3 0 0 14.3 0 32s14.3 32 32 32 32-14.3 32-32S49.7 0 32 0z" fill="#333"/><path class="prefix__st1" d="M43.9 42.3h5.9c0-16.9-13.7-30.6-30.6-30.6v5.9c13.6 0 24.7 11.1 24.7 24.7zm-20.6 0c2.3 0 4.1-1.8 4.1-4.1 0-2.2-1.8-4.1-4.1-4.1-2.2 0-4.1 1.8-4.1 4.1s1.8 4.1 4.1 4.1zm10.2 0h5.9c0-11.1-9.1-20.2-20.2-20.2V28c3.8 0 7.4 1.5 10.1 4.2 2.7 2.7 4.2 6.3 4.2 10.1z"/><text transform="translate(21.785 55.959)" class="prefix__st1" font-size="16" font-family="Avenir-Heavy">rss</text></svg>